# xmcd
#
# Track frame offsets: 
#        150
#        16332
#        27767
#        39102
#        51674
#        64534
#        76531
#        88616
#        110251
#        121911
#        135046
#        144443
#        154915
#        166825
#        178916
#        193948
#        207083
#        218368
#        230265
#        243212
#        255534
#        267012
#        277584
#        289406
#        302816
#        314713
#        326685
#        337857
#
# Disc length: 4681 seconds
#
# Revision: 0
# Processed by: cddbd v1.5.2PL0 Copyright (c) Steve Scherf et al.
# Submitted via: ExactAudioCopyFreeDBPlugin 1.0
#
DISCID=7312471c
DTITLE=Various Artist - American Soul Connection (1954-1962)
DYEAR=2019
DGENRE=No, thanks.
TTITLE0=James Brown and The Famous Flames - Night train
TTITLE1=Betty O'Brien - Why me
TTITLE2=The Isley Brothers - Twist and shout
TTITLE3=Ernie K-Doe - Hey, hey, hey
TTITLE4=Billy Stewart - Fat boy
TTITLE5=Eddie Holland - What about me
TTITLE6=Barbara Lynn - You'll lose a good thing
TTITLE7=Don Gardner and Dee Dee Ford - I need your loving
TTITLE8=The Valentinos - Lookin' for a love
TTITLE9=James Brown and The Famous Flames - Shout and shimmy
TTITLE10=Judy Clay - Do you think that's right
TTITLE11=The Impressions - Little young lover
TTITLE12=Ernie K-Doe - I got to find somebody
TTITLE13=Bobby Bland - Yield not to temptation
TTITLE14=Aretha Franklin - Try a little tenderness
TTITLE15=Arthur Alexander - Anna (Go to him)
TTITLE16=Chubby Checker - Popeye the hitchhiker
TTITLE17=Roy Hamilton - Earthquake
TTITLE18=LaBrenda Ben and The Beljeans - The chaperone
TTITLE19=Ted Taylor - You must have been meant for me
TTITLE20=Chris Kenner - Land of 1000 dances
TTITLE21=Roy Lee Johnson - Too many tears
TTITLE22=Gene Chandler - You threw a lucky punch
TTITLE23=James Brown and The Famous Flames - Three hearts in a tangle
TTITLE24=Irma Thomas - Somebody told you
TTITLE25=Rufus Thomas - The dog
TTITLE26=Wilson Pickett - Baby call on me
TTITLE27=Solomon Burke - Go on back to him
EXTD=
EXTT0=
EXTT1=
EXTT2=
EXTT3=
EXTT4=
EXTT5=
EXTT6=
EXTT7=
EXTT8=
EXTT9=
EXTT10=
EXTT11=
EXTT12=
EXTT13=
EXTT14=
EXTT15=
EXTT16=
EXTT17=
EXTT18=
EXTT19=
EXTT20=
EXTT21=
EXTT22=
EXTT23=
EXTT24=
EXTT25=
EXTT26=
EXTT27=
PLAYORDER=
